# xmcd
#
# Track frame offsets: 
#        150
#        21745
#        37030
#        57947
#        76032
#        93480
#        114617
#        132817
#        146125
#        165087
#        185202
#        207020
#
# Disc length: 3082 seconds
#
# Revision: 2
# Processed by: cddbd v1.5.2PL0 Copyright (c) Steve Scherf et al.
# Submitted via: ExactAudioCopy v1.3
#
DISCID=a50c080c
DTITLE=Gretchen Peters - Gretchen Peters
DYEAR=2000
DGENRE=Country
TTITLE0=Souvenirs
TTITLE1=In A Perfect World
TTITLE2=I Don't Know
TTITLE3=Love And Texaco
TTITLE4=Love Is A Drug
TTITLE5=Like Water Into Wine
TTITLE6=Eddie's First Wife
TTITLE7=Picasso And Me
TTITLE8=Lilies Of The Field
TTITLE9=Waiting For Amelia
TTITLE10=Revival
TTITLE11=I Saw Your Light
EXTD=YEAR: 2000
EXTT0=
EXTT1=
EXTT2=
EXTT3=
EXTT4=
EXTT5=
EXTT6=
EXTT7=
EXTT8=
EXTT9=
EXTT10=
EXTT11=
PLAYORDER=
